<?xml version="1.0" encoding="UTF-8"?>
<svg version="1.1" xmlns="http://www.w3.org/2000/svg" width="128" height="128">
<path d="M0 0 C13.86617234 10.17249381 22.38343644 24.27747059 26 41 C27.78105818 63.19333761 24.32669184 80.0547588 9.6875 97.25 C-1.06275461 108.74730621 -15.99221798 116.72932909 -31.8671875 117.43359375 C-33.86965406 117.45710576 -35.87249995 117.45796162 -37.875 117.4375 C-38.92856689 117.42920166 -39.98213379 117.42090332 -41.06762695 117.41235352 C-49.05723495 117.23905519 -55.66574514 116.35737007 -63 113 C-64.06992188 112.525625 -65.13984375 112.05125 -66.2421875 111.5625 C-82.63439059 103.53996296 -93.82260053 90.16715507 -100 73 C-105.05634913 55.58175653 -103.04005104 36.40633974 -94.46020508 20.58227539 C-86.00755497 5.98155928 -72.34006574 -4.83721636 -56.04125977 -9.56860352 C-36.59987775 -14.41331743 -16.58538436 -11.03010741 0 0 Z " fill="#F44336" transform="translate(102,11)"/>
<path d="M0 0 C4.26637478 1.70010449 7.22167045 5.44678993 10.41333008 8.6496582 C11.16678711 9.37475586 11.92024414 10.09985352 12.6965332 10.84692383 C13.40358398 11.55139648 14.11063477 12.25586914 14.83911133 12.98168945 C15.48920166 13.62468994 16.13929199 14.26769043 16.80908203 14.93017578 C18.10083008 16.8371582 18.10083008 16.8371582 17.92236328 18.95751953 C16.45594986 22.31262115 13.45366928 24.30376276 10.71801758 26.6418457 C8.82162997 28.77176007 8.82162997 28.77176007 9.05395508 31.7355957 C11.14640148 37.93485856 16.53968094 42.29881481 21.10083008 46.8371582 C21.60098633 47.33989258 22.10114258 47.84262695 22.61645508 48.3605957 C27.87518911 54.10628948 27.87518911 54.10628948 34.63598633 57.38793945 C38.08390695 56.61748492 39.35550975 54.90356658 41.66333008 52.2746582 C43.91723633 49.70825195 43.91723633 49.70825195 46.10083008 47.8371582 C51.48801633 48.31286636 54.81475512 53.03844558 58.41333008 56.6496582 C59.16678711 57.37475586 59.92024414 58.09985352 60.6965332 58.84692383 C61.40358398 59.55139648 62.11063477 60.25586914 62.83911133 60.98168945 C63.48920166 61.62468994 64.13929199 62.26769043 64.80908203 62.93017578 C66.10083008 64.8371582 66.10083008 64.8371582 65.94311523 66.91918945 C64.63267096 69.90320401 62.48616346 71.76847715 60.16333008 74.0246582 C59.26743164 74.90508789 58.3715332 75.78551758 57.44848633 76.69262695 C54.16452066 79.69245583 52.02916465 80.25772777 47.55395508 80.16918945 C28.96274165 77.6528628 10.09133533 60.10875375 -0.89916992 45.8371582 C-7.29654159 36.67755689 -12.477552 27.06371599 -14.64916992 16.0246582 C-13.49253812 11.10897306 -10.40229578 8.33298589 -6.89916992 4.8371582 C-6.42479492 4.29188477 -5.95041992 3.74661133 -5.46166992 3.18481445 C-2.45218614 -0.21025944 -2.45218614 -0.21025944 0 0 Z " fill="#FEFCFC" transform="translate(37.899169921875,24.162841796875)"/>
</svg>
