<svg xmlns="http://www.w3.org/2000/svg" xmlns:xlink="http://www.w3.org/1999/xlink" viewBox="0 0 36.16 35.07"><defs><style>.cls-1{fill:none;}.cls-2{clip-path:url(#clip-path);}.cls-3{fill:#357fbf;}.cls-4{fill:#fff;}.cls-5{fill:#fbfcfc;}.cls-6{fill:#2e71aa;}</style><clipPath id="clip-path" transform="translate(0.14 0.14)"><circle class="cls-1" cx="17.29" cy="17.29" r="17.29"/></clipPath></defs><g id="Layer_2" data-name="Layer 2"><g id="Layer_1-2" data-name="Layer 1"><g class="cls-2"><circle class="cls-3" cx="17.49" cy="17.49" r="17.49"/><path class="cls-4" d="M36,15.91c0,8.86-9.75,16.28-19.73,16.28S-.14,24.77-.14,15.91,8-.14,17.94-.14,36,7,36,15.91Z" transform="translate(0.14 0.14)"/><path class="cls-5" d="M6,28.6c-.14-.06-.23-.12-.08-.25s.2-.14.3-.21a7.2,7.2,0,0,0,2.45-2.3,1.33,1.33,0,0,0-.2-1.94A13.87,13.87,0,0,1,4.2,11.38,14.09,14.09,0,0,1,7.74,4.14,15.66,15.66,0,0,1,11.63,1c.08-.05.21-.07.22-.2s-.08,0-.12,0C9.26.77,6.8.72,4.34.78A4.45,4.45,0,0,0,0,5.29q0,11.45,0,22.9a4.37,4.37,0,0,0,4.17,4.44c2,.08,4,0,6,0l.43,0H21.13c2.63,0,5.27,0,7.9,0a4.42,4.42,0,0,0,4.43-4.42V23.92a.6.6,0,0,0,0-.32c-.13,0-.18.11-.26.19a16.43,16.43,0,0,1-4.93,3.39,18.21,18.21,0,0,1-13.72.52,2.26,2.26,0,0,0-1.26-.06c-.62.16-1.22.34-1.83.52A10.94,10.94,0,0,1,6,28.6Zm5.3-12.33.26-.35,2.88-3.65a5,5,0,0,0,.73-1.13A.78.78,0,0,0,14.62,10a1.79,1.79,0,0,0-.69-.08H10a2.51,2.51,0,0,0-.55.06.77.77,0,0,0,0,1.5,2,2,0,0,0,.54.06h2.38c.09,0,.2-.06.26.07a2.56,2.56,0,0,1-.2.26L9.08,16.22A1,1,0,0,0,9.91,18c.33,0,.68,0,1,0h3.55a.82.82,0,0,0,.9-1c-.05-.46-.37-.7-1-.71Zm8.49-3.84a2.33,2.33,0,0,0-2.92-.27,3.07,3.07,0,0,0-1.49,3.18,2.85,2.85,0,0,0,2,2.68,2.23,2.23,0,0,0,2.23-.37c.17-.14.22-.11.35,0a.89.89,0,0,0,1,.29.86.86,0,0,0,.61-.83c0-1.46,0-2.92,0-4.39a.91.91,0,0,0-1.13-.84,1.13,1.13,0,0,0-.66.51Zm5.07,2.71a3,3,0,0,0,3.38,3A3,3,0,0,0,31,14.83a3.11,3.11,0,1,0-6.21.31Zm-.65-1.46c0-1.14,0-2.29,0-3.43a.92.92,0,1,0-1.83,0c0,.34,0,.68,0,1v5.82a.91.91,0,0,0,1.8.28,1.24,1.24,0,0,0,0-.27c0-1.14,0-2.27,0-3.41Z" transform="translate(0.14 0.14)"/><path class="cls-3" d="M10.34,32.68c-2,0-4.22,0-6.22,0A4.39,4.39,0,0,1,0,28.2Q0,16.76,0,5.3A4.46,4.46,0,0,1,4.34.8c2.46-.07,4.92,0,7.39,0,0,0,.1,0,.12.06s-.14.14-.22.19A15.7,15.7,0,0,0,7.74,4.16,14.06,14.06,0,0,0,4.2,11.39,13.9,13.9,0,0,0,8.43,23.91a1.34,1.34,0,0,1,.2,1.94,7.32,7.32,0,0,1-2.45,2.31c-.1.05-.2.13-.31.19s0,.2.08.26a.67.67,0,0,0,.11.18c.84.75,1.64,1.55,2.46,2.31.39.36.78.73,1.15,1.1C9.83,32.34,10.3,32.42,10.34,32.68Z" transform="translate(0.14 0.14)"/><path class="cls-6" d="M12.13,33.83a19.86,19.86,0,0,1-3.25-2.15,28.44,28.44,0,0,1-2.82-2.89A.72.72,0,0,1,6,28.6a11.09,11.09,0,0,0,5.48-.43c.61-.18,1.21-.37,1.83-.52a2.09,2.09,0,0,1,1.26.06,18.26,18.26,0,0,0,13.72-.53,16,16,0,0,0,4.93-3.38c.08-.07.13-.18.26-.19a.58.58,0,0,1,0,.32v4.28a4.43,4.43,0,0,1-4.39,4.46L29,34.92c-2.64,0-5.27,0-7.9,0H10.53A14.34,14.34,0,0,1,12.13,33.83Z" transform="translate(0.14 0.14)"/><path class="cls-3" d="M11.26,16.27h3.18c.57,0,.89.25,1,.71a.83.83,0,0,1-.9,1H10.94c-.35,0-.68,0-1,0a1,1,0,0,1-.82-1.74c1.12-1.44,2.26-2.88,3.39-4.31.07-.09.13-.18.2-.26s-.18-.07-.26-.07H10a2.35,2.35,0,0,1-.54-.06.76.76,0,0,1-.58-.92A.74.74,0,0,1,9.48,10,2,2,0,0,1,10,10h3.92a2.71,2.71,0,0,1,.69.08.81.81,0,0,1,.51,1.12,5.89,5.89,0,0,1-.73,1.13c-1,1.22-1.92,2.44-2.88,3.64l-.27.35Z" transform="translate(0.14 0.14)"/><path class="cls-3" d="M19.75,12.43a1.11,1.11,0,0,1,.66-.5.89.89,0,0,1,1.12.84c0,1.46,0,2.93,0,4.39a.87.87,0,0,1-.61.83.89.89,0,0,1-1-.29c-.12-.15-.18-.18-.35,0a2.25,2.25,0,0,1-2.23.37,2.87,2.87,0,0,1-2-2.68,3,3,0,0,1,1.49-3.18,2.32,2.32,0,0,1,2.92.26ZM17.16,15.1a1.53,1.53,0,0,0,.3.88,1.21,1.21,0,0,0,1.69.24,1.09,1.09,0,0,0,.24-.24,1.83,1.83,0,0,0,0-2,1.13,1.13,0,0,0-.87-.46C17.71,13.44,17.15,14.06,17.16,15.1Zm7.66,0A3.11,3.11,0,1,1,31,14.83a3,3,0,0,1-2.83,3.33,3,3,0,0,1-3.39-3ZM26.65,15A1.66,1.66,0,0,0,27,16a1.19,1.19,0,0,0,1.68.22,1,1,0,0,0,.21-.21,1.81,1.81,0,0,0,0-2.05,1.15,1.15,0,0,0-.87-.46A1.31,1.31,0,0,0,26.65,15Zm-2.48-1.28c0,1.14,0,2.27,0,3.41a.94.94,0,0,1-.92,1A1.24,1.24,0,0,1,23,18a.93.93,0,0,1-.64-.94V11.26c0-.34,0-.68,0-1a.86.86,0,0,1,.9-.93.87.87,0,0,1,.93.94C24.18,11.39,24.17,12.54,24.17,13.68Z" transform="translate(0.14 0.14)"/><path class="cls-5" d="M17.16,15.1c0-1,.55-1.66,1.35-1.61a1.12,1.12,0,0,1,.87.46,1.83,1.83,0,0,1,0,2,1.2,1.2,0,0,1-1.68.24.91.91,0,0,1-.24-.24,1.53,1.53,0,0,1-.3-.88ZM26.65,15A1.32,1.32,0,0,1,28,13.49a1.15,1.15,0,0,1,.87.46,1.81,1.81,0,0,1,0,2.05,1.21,1.21,0,0,1-1.69.2A1,1,0,0,1,27,16,1.72,1.72,0,0,1,26.65,15Z" transform="translate(0.14 0.14)"/></g></g></g></svg>